<svg width="128" height="128" viewBox="0 0 128 128" fill="none" xmlns="http://www.w3.org/2000/svg">
<rect width="128" height="128" rx="10" fill="url(#paint0_linear_975_186)"/>
<path d="M40.096 89.244H33.648L39.732 75.984L28.916 53.676H35.728L43.008 69.692L49.82 53.676H56.216L40.096 89.244ZM64.1144 79H58.1344V53.676H63.9064V56.9C64.5997 55.652 65.6397 54.6813 67.0264 53.988C68.4477 53.2947 69.9037 52.948 71.3944 52.948C73.093 52.948 74.6184 53.3293 75.9704 54.092C77.3224 54.8547 78.3277 55.964 78.9864 57.42C80.7544 54.4387 83.493 52.948 87.2024 52.948C89.6984 52.948 91.813 53.7627 93.5464 55.392C95.2797 57.0213 96.1464 59.4133 96.1464 62.568V79H90.3224V63.556C90.3224 61.996 89.9064 60.748 89.0744 59.812C88.277 58.8413 87.0637 58.356 85.4344 58.356C83.8744 58.356 82.609 58.8933 81.6384 59.968C80.6677 61.0427 80.1824 62.3773 80.1824 63.972V79H74.2544V63.556C74.2544 61.996 73.8384 60.748 73.0064 59.812C72.209 58.8413 70.9957 58.356 69.3664 58.356C67.7717 58.356 66.489 58.8933 65.5184 59.968C64.5824 61.008 64.1144 62.3427 64.1144 63.972V79Z" fill="black"/>
<defs>
<linearGradient id="paint0_linear_975_186" x1="15.7" y1="23.4" x2="135.782" y2="128.559" gradientUnits="userSpaceOnUse">
<stop stop-color="#E1E6EA"/>
<stop offset="1" stop-color="#E8EBEE"/>
</linearGradient>
</defs>
</svg>
