<svg width="256" height="256" viewBox="0 0 256 256" fill="none" xmlns="http://www.w3.org/2000/svg">
<rect width="256" height="256" rx="20" fill="url(#paint0_linear_975_176)"/>
<path d="M80.192 178.488H67.296L79.464 151.968L57.832 107.352H71.456L86.016 139.384L99.64 107.352H112.432L80.192 178.488ZM128.229 158H116.269V107.352H127.813V113.8C129.199 111.304 131.279 109.363 134.053 107.976C136.895 106.589 139.807 105.896 142.789 105.896C146.186 105.896 149.237 106.659 151.941 108.184C154.645 109.709 156.655 111.928 157.973 114.84C161.509 108.877 166.986 105.896 174.405 105.896C179.397 105.896 183.626 107.525 187.093 110.784C190.559 114.043 192.293 118.827 192.293 125.136V158H180.645V127.112C180.645 123.992 179.813 121.496 178.149 119.624C176.554 117.683 174.127 116.712 170.869 116.712C167.749 116.712 165.218 117.787 163.277 119.936C161.335 122.085 160.365 124.755 160.365 127.944V158H148.509V127.112C148.509 123.992 147.677 121.496 146.013 119.624C144.418 117.683 141.991 116.712 138.733 116.712C135.543 116.712 132.978 117.787 131.037 119.936C129.165 122.016 128.229 124.685 128.229 127.944V158Z" fill="black"/>
<defs>
<linearGradient id="paint0_linear_975_176" x1="31.4" y1="46.8" x2="271.563" y2="257.119" gradientUnits="userSpaceOnUse">
<stop stop-color="#E1E6EA"/>
<stop offset="1" stop-color="#E8EBEE"/>
</linearGradient>
</defs>
</svg>
