<svg width="512" height="512" viewBox="0 0 512 512" fill="none" xmlns="http://www.w3.org/2000/svg">
<rect width="512" height="512" rx="40" fill="url(#paint0_linear_975_184)"/>
<path d="M160.384 355.976H134.592L158.928 302.936L115.664 213.704H142.912L172.032 277.768L199.28 213.704H224.864L160.384 355.976ZM256.458 315H232.538V213.704H255.626V226.6C258.399 221.608 262.559 217.725 268.106 214.952C273.791 212.179 279.615 210.792 285.578 210.792C292.372 210.792 298.474 212.317 303.882 215.368C309.29 218.419 313.311 222.856 315.946 228.68C323.018 216.755 333.972 210.792 348.81 210.792C358.794 210.792 367.252 214.051 374.186 220.568C381.119 227.085 384.586 236.653 384.586 249.272V315H361.29V253.224C361.29 246.984 359.626 241.992 356.298 238.248C353.108 234.365 348.255 232.424 341.738 232.424C335.498 232.424 330.436 234.573 326.554 238.872C322.671 243.171 320.73 248.509 320.73 254.888V315H297.018V253.224C297.018 246.984 295.354 241.992 292.026 238.248C288.836 234.365 283.983 232.424 277.466 232.424C271.087 232.424 265.956 234.573 262.074 238.872C258.33 243.032 256.458 248.371 256.458 254.888V315Z" fill="black"/>
<defs>
<linearGradient id="paint0_linear_975_184" x1="62.8" y1="93.6" x2="543.127" y2="514.237" gradientUnits="userSpaceOnUse">
<stop stop-color="#E1E6EA"/>
<stop offset="1" stop-color="#E8EBEE"/>
</linearGradient>
</defs>
</svg>
