<svg width="64" height="64" viewBox="0 0 64 64" fill="none" xmlns="http://www.w3.org/2000/svg">
<rect width="64" height="64" rx="5" fill="url(#paint0_linear_975_188)"/>
<path d="M20.048 44.122H16.824L19.866 37.492L14.458 26.338H17.864L21.504 34.346L24.91 26.338H28.108L20.048 44.122ZM32.0572 39H29.0672V26.338H31.9532V27.95C32.2999 27.326 32.8199 26.8407 33.5132 26.494C34.2239 26.1473 34.9519 25.974 35.6972 25.974C36.5465 25.974 37.3092 26.1647 37.9852 26.546C38.6612 26.9273 39.1639 27.482 39.4932 28.21C40.3772 26.7193 41.7465 25.974 43.6012 25.974C44.8492 25.974 45.9065 26.3813 46.7732 27.196C47.6399 28.0107 48.0732 29.2067 48.0732 30.784V39H45.1612V31.278C45.1612 30.498 44.9532 29.874 44.5372 29.406C44.1385 28.9207 43.5319 28.678 42.7172 28.678C41.9372 28.678 41.3045 28.9467 40.8192 29.484C40.3339 30.0213 40.0912 30.6887 40.0912 31.486V39H37.1272V31.278C37.1272 30.498 36.9192 29.874 36.5032 29.406C36.1045 28.9207 35.4979 28.678 34.6832 28.678C33.8859 28.678 33.2445 28.9467 32.7592 29.484C32.2912 30.004 32.0572 30.6713 32.0572 31.486V39Z" fill="black"/>
<defs>
<linearGradient id="paint0_linear_975_188" x1="7.85" y1="11.7" x2="67.8909" y2="64.2796" gradientUnits="userSpaceOnUse">
<stop stop-color="#E1E6EA"/>
<stop offset="1" stop-color="#E8EBEE"/>
</linearGradient>
</defs>
</svg>
