<svg width="512" height="512" viewBox="0 0 512 512" fill="none" xmlns="http://www.w3.org/2000/svg">
<rect width="512" height="512" fill="#192348"/>
<path d="M435.987 228.569C434.356 234.513 432.2 240.747 429.52 247.273C426.956 253.799 423.634 259.801 419.556 265.278C415.477 270.756 410.582 275.3 404.872 278.913C399.162 282.526 392.461 284.332 384.77 284.332C379.992 284.332 375.738 283.4 372.009 281.535C368.396 279.787 365.25 277.398 362.569 274.368C360.006 271.338 358.024 267.784 356.626 263.705C355.344 259.626 354.703 255.314 354.703 250.77V178.051C354.703 175.254 354.645 172.632 354.528 170.185C354.412 167.737 354.12 165.581 353.654 163.717C353.188 161.852 352.489 160.396 351.557 159.347C350.741 158.181 349.576 157.599 348.061 157.599C345.613 157.599 342.642 159.347 339.146 162.843C335.649 166.339 332.27 170.884 329.007 176.478C325.744 182.071 322.83 188.423 320.267 195.531C317.703 202.523 316.188 209.574 315.722 216.683V268.949C315.722 270.697 315.663 272.504 315.547 274.368C315.547 276.116 315.197 277.689 314.498 279.088C313.915 280.603 312.925 281.826 311.526 282.759C310.244 283.808 308.322 284.332 305.758 284.332C304.01 284.332 302.087 284.099 299.989 283.633C298.008 283.283 296.144 282.526 294.396 281.36C292.764 280.312 291.366 278.738 290.2 276.641C289.151 274.66 288.627 271.979 288.627 268.6V178.051C288.627 175.254 288.51 172.632 288.277 170.185C288.161 167.737 287.869 165.581 287.403 163.717C286.937 161.852 286.238 160.396 285.306 159.347C284.49 158.181 283.325 157.599 281.81 157.599C279.362 157.599 276.391 159.347 272.895 162.843C269.515 166.339 266.135 170.884 262.756 176.478C259.493 182.071 256.579 188.423 254.016 195.531C251.568 202.523 250.053 209.574 249.471 216.683V268.949C249.471 270.697 249.412 272.504 249.296 274.368C249.296 276.116 248.946 277.689 248.247 279.088C247.664 280.603 246.674 281.826 245.275 282.759C243.993 283.808 242.071 284.332 239.507 284.332C237.759 284.332 235.836 284.099 233.738 283.633C231.757 283.283 229.893 282.526 228.145 281.36C226.513 280.312 225.115 278.738 223.949 276.641C222.9 274.66 222.376 271.979 222.376 268.6V155.151C222.376 151.772 222.085 149.325 221.502 147.81C221.036 146.295 220.803 144.896 220.803 143.614C220.803 141.866 221.735 140.468 223.6 139.419C225.464 138.254 227.678 137.671 230.242 137.671C236.186 137.671 240.847 139.244 244.227 142.391C247.723 145.421 249.471 149.091 249.471 153.403V168.437C251.801 163.542 254.307 158.997 256.987 154.802C259.784 150.606 262.756 146.994 265.902 143.964C269.049 140.817 272.37 138.37 275.866 136.622C279.479 134.874 283.325 134 287.403 134C292.764 134 297.192 134.991 300.688 136.972C304.301 138.953 307.156 141.575 309.254 144.838C311.468 148.101 313.041 151.772 313.974 155.851C314.906 159.813 315.489 163.775 315.722 167.737C317.936 162.959 320.383 158.531 323.063 154.452C325.744 150.373 328.657 146.819 331.804 143.789C334.95 140.759 338.271 138.37 341.768 136.622C345.38 134.874 349.226 134 353.305 134C359.132 134 363.91 135.107 367.639 137.321C371.368 139.535 374.281 142.391 376.379 145.887C378.477 149.383 379.933 153.287 380.749 157.599C381.565 161.91 381.973 166.106 381.973 170.185V244.302C381.973 245.118 382.031 246.458 382.147 248.322C382.264 250.07 382.614 251.877 383.196 253.741C383.779 255.606 384.653 257.237 385.818 258.636C387.1 260.034 388.907 260.733 391.237 260.733C394.85 260.733 397.938 259.451 400.502 256.888C403.182 254.324 405.455 251.119 407.319 247.273C409.3 243.428 410.932 239.291 412.214 234.862C413.496 230.317 414.545 226.064 415.36 222.102C416.06 218.372 417.167 215.692 418.682 214.061C420.313 212.312 422.061 211.438 423.926 211.438C425.324 211.438 426.723 211.905 428.121 212.837C429.636 213.653 430.976 214.76 432.142 216.158C433.424 217.557 434.414 219.13 435.113 220.878C435.929 222.626 436.337 224.374 436.337 226.122C436.337 226.355 436.337 226.646 436.337 226.996C436.337 227.346 436.22 227.87 435.987 228.569Z" fill="white"/>
<path d="M220.803 222.102C221.852 218.372 223.075 215.692 224.474 214.061C225.872 212.312 227.504 211.438 229.368 211.438C230.767 211.438 232.223 211.905 233.738 212.837C235.253 213.653 236.593 214.76 237.759 216.158C239.041 217.557 240.031 219.13 240.73 220.878C241.546 222.626 241.954 224.374 241.954 226.122C241.954 226.355 241.954 226.821 241.954 227.521C241.954 228.22 241.838 228.919 241.604 229.618C238.575 239.99 235.02 249.196 230.941 257.237C226.979 265.162 222.667 272.271 218.006 278.563C213.461 284.856 208.741 290.45 203.847 295.345C198.952 300.356 194.058 304.959 189.163 309.154V371.035C189.163 380.475 188.056 388.399 185.842 394.809C183.744 401.335 180.947 406.579 177.451 410.541C173.955 414.62 169.993 417.533 165.564 419.281C161.136 421.029 156.649 421.903 152.104 421.903C147.093 421.903 142.49 420.796 138.295 418.582C134.1 416.484 130.429 413.571 127.282 409.842C124.252 406.113 121.863 401.743 120.115 396.731C118.484 391.72 117.668 386.36 117.668 380.649C117.668 371.56 118.833 363.519 121.164 356.526C123.611 349.534 126.874 343.125 130.953 337.298C135.032 331.471 139.752 325.994 145.112 320.866C150.473 315.855 156.125 310.728 162.068 305.483V260.034C157.757 267.259 152.745 273.145 147.035 277.689C141.325 282.351 134.624 284.682 126.933 284.682C120.989 284.682 115.629 283.458 110.851 281.011C106.189 278.563 102.227 275.126 98.9639 270.697C95.7008 266.152 93.1953 260.733 91.4473 254.44C89.8158 248.031 89 240.922 89 233.114C89 223.675 89.641 214.177 90.9229 204.621C92.3213 195.065 93.8363 186.441 95.4678 178.75C97.3324 169.777 99.4883 161.095 101.936 152.704C102.518 151.189 102.926 149.674 103.159 148.159C103.509 146.528 104.208 145.071 105.257 143.789C106.306 142.507 107.937 141.458 110.151 140.643C112.482 139.827 116.036 139.419 120.814 139.419C125.243 139.419 128.098 140.235 129.38 141.866C130.662 143.381 131.128 145.188 130.778 147.285C130.545 149.383 129.846 151.539 128.681 153.753C127.632 155.967 126.933 157.773 126.583 159.172C124.951 165.814 123.495 171.874 122.213 177.352C120.931 182.829 119.824 188.364 118.892 193.958C118.076 199.435 117.435 205.204 116.969 211.264C116.503 217.207 116.27 223.908 116.27 231.366C116.27 241.155 117.668 248.555 120.465 253.566C123.378 258.577 127.457 261.083 132.701 261.083C136.314 261.083 139.635 259.743 142.665 257.062C145.812 254.382 148.608 250.828 151.056 246.399C153.619 241.854 155.834 236.727 157.698 231.017C159.563 225.19 161.02 219.13 162.068 212.837V155.151C162.068 151.772 161.835 149.325 161.369 147.81C160.903 146.295 160.67 144.896 160.67 143.614C160.67 141.866 161.544 140.468 163.292 139.419C165.157 138.254 167.371 137.671 169.935 137.671C175.878 137.671 180.539 139.244 183.919 142.391C187.415 145.421 189.163 149.091 189.163 153.403V279.088C195.689 271.863 201.691 263.647 207.168 254.44C212.645 245.234 217.19 234.454 220.803 222.102ZM152.104 399.354C154.901 399.354 156.999 398.188 158.397 395.857C159.796 393.527 160.728 390.788 161.194 387.642C161.777 384.612 162.068 381.523 162.068 378.377C162.068 375.23 162.068 372.783 162.068 371.035V332.753C156.242 338.58 151.522 345.164 147.909 352.506C144.413 359.848 142.665 368.879 142.665 379.601C142.665 385.194 143.481 389.856 145.112 393.585C146.86 397.431 149.191 399.354 152.104 399.354Z" fill="white"/>
</svg>
